<svg id="Logo_1" data-name="Logo 1" xmlns="http://www.w3.org/2000/svg" viewBox="0 0 536.32 536.32"><defs><style>.cls-1{fill:#007bff;}.cls-2{fill:#ff0202;}</style></defs><g id="_2_col_raw" data-name="2 col raw"><g id="cir"><path class="cls-1" d="M183.52,290.3a14.08,14.08,0,0,0-5.4-5.6,14.41,14.41,0,0,0-7.3-1.95,14.15,14.15,0,0,0-7.2,1.9,14.38,14.38,0,0,0-5.35,5.55,17.46,17.46,0,0,0-2.05,8.65,18,18,0,0,0,2.05,8.75,14.78,14.78,0,0,0,5.4,5.75,13.77,13.77,0,0,0,7.15,2,14.41,14.41,0,0,0,7.3-2,14.08,14.08,0,0,0,5.4-5.6,20.14,20.14,0,0,0,0-17.5Zm0,0a14.08,14.08,0,0,0-5.4-5.6,14.41,14.41,0,0,0-7.3-1.95,14.15,14.15,0,0,0-7.2,1.9,14.38,14.38,0,0,0-5.35,5.55,17.46,17.46,0,0,0-2.05,8.65,18,18,0,0,0,2.05,8.75,14.78,14.78,0,0,0,5.4,5.75,13.77,13.77,0,0,0,7.15,2,14.41,14.41,0,0,0,7.3-2,14.08,14.08,0,0,0,5.4-5.6,20.14,20.14,0,0,0,0-17.5Zm0,0a14.08,14.08,0,0,0-5.4-5.6,14.41,14.41,0,0,0-7.3-1.95,14.15,14.15,0,0,0-7.2,1.9,14.38,14.38,0,0,0-5.35,5.55,17.46,17.46,0,0,0-2.05,8.65,18,18,0,0,0,2.05,8.75,14.78,14.78,0,0,0,5.4,5.75,13.77,13.77,0,0,0,7.15,2,14.41,14.41,0,0,0,7.3-2,14.08,14.08,0,0,0,5.4-5.6,20.14,20.14,0,0,0,0-17.5Zm0,0a14.08,14.08,0,0,0-5.4-5.6,14.41,14.41,0,0,0-7.3-1.95,14.15,14.15,0,0,0-7.2,1.9,14.38,14.38,0,0,0-5.35,5.55,17.46,17.46,0,0,0-2.05,8.65,18,18,0,0,0,2.05,8.75,14.78,14.78,0,0,0,5.4,5.75,13.77,13.77,0,0,0,7.15,2,14.41,14.41,0,0,0,7.3-2,14.08,14.08,0,0,0,5.4-5.6,20.14,20.14,0,0,0,0-17.5Zm0,0a14.08,14.08,0,0,0-5.4-5.6,14.41,14.41,0,0,0-7.3-1.95,14.15,14.15,0,0,0-7.2,1.9,14.38,14.38,0,0,0-5.35,5.55,17.46,17.46,0,0,0-2.05,8.65,18,18,0,0,0,2.05,8.75,14.78,14.78,0,0,0,5.4,5.75,13.77,13.77,0,0,0,7.15,2,14.41,14.41,0,0,0,7.3-2,14.08,14.08,0,0,0,5.4-5.6,20.14,20.14,0,0,0,0-17.5Zm0,0a14.08,14.08,0,0,0-5.4-5.6,14.41,14.41,0,0,0-7.3-1.95,14.15,14.15,0,0,0-7.2,1.9,14.38,14.38,0,0,0-5.35,5.55,17.46,17.46,0,0,0-2.05,8.65,18,18,0,0,0,2.05,8.75,14.78,14.78,0,0,0,5.4,5.75,13.77,13.77,0,0,0,7.15,2,14.41,14.41,0,0,0,7.3-2,14.08,14.08,0,0,0,5.4-5.6,20.14,20.14,0,0,0,0-17.5Zm332.3-143.81A268.16,268.16,0,0,0,19.84,288v.65A195.86,195.86,0,0,0,69.51,418.71a242.36,242.36,0,0,0,49.31,42.05,247.05,247.05,0,0,0,35.41,19A254.71,254.71,0,0,0,256.3,500.83c1.43,0,2.85,0,4.27,0A214.66,214.66,0,0,1,99.15,389.86c42.67-28.56,110-47.14,186-47.6V233.74C214,233.31,150.37,217,107.54,191.44q-4.35-2.59-8.39-5.3A215.83,215.83,0,0,1,182,101.47,266,266,0,0,1,319.7,63.53a269.8,269.8,0,0,1,70,9.17,263.4,263.4,0,0,1,38.83,13.72,256.58,256.58,0,0,1,93.36,70.42Q519,151.59,515.82,146.49ZM279.62,326.75h-14v-55.4h14ZM266.57,250.7a9.22,9.22,0,0,1,12.3,0,8.21,8.21,0,0,1,0,11.7,9.22,9.22,0,0,1-12.3,0,8.21,8.21,0,0,1,0-11.7Zm-54.35,64.75,24.2-32.6h-24.1v-11.5h40.2v11.3l-24.4,32.6h24.7v11.5h-40.6ZM145.27,284a24.62,24.62,0,0,1,9.1-10,24.28,24.28,0,0,1,12.85-3.5,22.52,22.52,0,0,1,10.85,2.5,22,22,0,0,1,7.45,6.3v-7.9h14.1v55.4h-14.1v-8.1a20.8,20.8,0,0,1-7.45,6.45,22.76,22.76,0,0,1-10.95,2.55,23.58,23.58,0,0,1-12.75-3.6,25.24,25.24,0,0,1-9.1-10.15,32.64,32.64,0,0,1-3.35-15A32.1,32.1,0,0,1,145.27,284Zm-9.45-27.1v11.4h-26.5v17.5h23.5v11.1h-23.5v18.5h26.5v11.4H95.32v-69.9Zm27.85,56.5a13.77,13.77,0,0,0,7.15,2,14.41,14.41,0,0,0,7.3-2,14.08,14.08,0,0,0,5.4-5.6,20.14,20.14,0,0,0,0-17.5,14.08,14.08,0,0,0-5.4-5.6,14.41,14.41,0,0,0-7.3-1.95,14.15,14.15,0,0,0-7.2,1.9,14.38,14.38,0,0,0-5.35,5.55,17.46,17.46,0,0,0-2.05,8.65,18,18,0,0,0,2.05,8.75A14.78,14.78,0,0,0,163.67,313.35Zm19.85-23.05a14.08,14.08,0,0,0-5.4-5.6,14.41,14.41,0,0,0-7.3-1.95,14.15,14.15,0,0,0-7.2,1.9,14.38,14.38,0,0,0-5.35,5.55,17.46,17.46,0,0,0-2.05,8.65,18,18,0,0,0,2.05,8.75,14.78,14.78,0,0,0,5.4,5.75,13.77,13.77,0,0,0,7.15,2,14.41,14.41,0,0,0,7.3-2,14.08,14.08,0,0,0,5.4-5.6,20.14,20.14,0,0,0,0-17.5Zm0,0a14.08,14.08,0,0,0-5.4-5.6,14.41,14.41,0,0,0-7.3-1.95,14.15,14.15,0,0,0-7.2,1.9,14.38,14.38,0,0,0-5.35,5.55,17.46,17.46,0,0,0-2.05,8.65,18,18,0,0,0,2.05,8.75,14.78,14.78,0,0,0,5.4,5.75,13.77,13.77,0,0,0,7.15,2,14.41,14.41,0,0,0,7.3-2,14.08,14.08,0,0,0,5.4-5.6,20.14,20.14,0,0,0,0-17.5Zm0,0a14.08,14.08,0,0,0-5.4-5.6,14.41,14.41,0,0,0-7.3-1.95,14.15,14.15,0,0,0-7.2,1.9,14.38,14.38,0,0,0-5.35,5.55,17.46,17.46,0,0,0-2.05,8.65,18,18,0,0,0,2.05,8.75,14.78,14.78,0,0,0,5.4,5.75,13.77,13.77,0,0,0,7.15,2,14.41,14.41,0,0,0,7.3-2,14.08,14.08,0,0,0,5.4-5.6,20.14,20.14,0,0,0,0-17.5Zm0,0a14.08,14.08,0,0,0-5.4-5.6,14.41,14.41,0,0,0-7.3-1.95,14.15,14.15,0,0,0-7.2,1.9,14.38,14.38,0,0,0-5.35,5.55,17.46,17.46,0,0,0-2.05,8.65,18,18,0,0,0,2.05,8.75,14.78,14.78,0,0,0,5.4,5.75,13.77,13.77,0,0,0,7.15,2,14.41,14.41,0,0,0,7.3-2,14.08,14.08,0,0,0,5.4-5.6,20.14,20.14,0,0,0,0-17.5Zm0,0a14.08,14.08,0,0,0-5.4-5.6,14.41,14.41,0,0,0-7.3-1.95,14.15,14.15,0,0,0-7.2,1.9,14.38,14.38,0,0,0-5.35,5.55,17.46,17.46,0,0,0-2.05,8.65,18,18,0,0,0,2.05,8.75,14.78,14.78,0,0,0,5.4,5.75,13.77,13.77,0,0,0,7.15,2,14.41,14.41,0,0,0,7.3-2,14.08,14.08,0,0,0,5.4-5.6,20.14,20.14,0,0,0,0-17.5Zm0,0a14.08,14.08,0,0,0-5.4-5.6,14.41,14.41,0,0,0-7.3-1.95,14.15,14.15,0,0,0-7.2,1.9,14.38,14.38,0,0,0-5.35,5.55,17.46,17.46,0,0,0-2.05,8.65,18,18,0,0,0,2.05,8.75,14.78,14.78,0,0,0,5.4,5.75,13.77,13.77,0,0,0,7.15,2,14.41,14.41,0,0,0,7.3-2,14.08,14.08,0,0,0,5.4-5.6,20.14,20.14,0,0,0,0-17.5Z" transform="translate(-19.84 -19.84)"/><path class="cls-2" d="M506.49,157.29a242.36,242.36,0,0,0-49.31-42,247.05,247.05,0,0,0-35.41-19A254.71,254.71,0,0,0,319.7,75.17c-1.43,0-2.85,0-4.27,0A214.66,214.66,0,0,1,476.85,186.14c-42.67,28.56-110,47.14-186,47.6V342.26c71.15.43,134.74,16.77,177.57,42.3q4.35,2.6,8.39,5.3A215.83,215.83,0,0,1,394,474.53,266,266,0,0,1,256.3,512.47a269.8,269.8,0,0,1-70-9.17,263.4,263.4,0,0,1-38.83-13.72,256.58,256.58,0,0,1-93.36-70.42q2.93,5.25,6.11,10.35A268.16,268.16,0,0,0,556.16,288v-.65A195.86,195.86,0,0,0,506.49,157.29ZM331.42,326.75,316,299.55h-6.6v27.2h-14V257h26.2a30.59,30.59,0,0,1,13.8,2.85,19.93,19.93,0,0,1,8.55,7.7,21,21,0,0,1,2.85,10.85,20.76,20.76,0,0,1-4,12.45q-4,5.55-11.9,7.65l16.7,28.3Zm36.1,0h-14v-55.4h14Zm-.75-64.35a9.22,9.22,0,0,1-12.3,0,8.21,8.21,0,0,1,0-11.7,9.22,9.22,0,0,1,12.3,0,8.21,8.21,0,0,1,0,11.7ZM432,326.75h-14.2v-8.2a19,19,0,0,1-7.3,6.6,23,23,0,0,1-10.9,2.5,23.79,23.79,0,0,1-12.8-3.6,25,25,0,0,1-9.15-10.15,32.64,32.64,0,0,1-3.35-15,32.1,32.1,0,0,1,3.35-14.9,24.15,24.15,0,0,1,22.05-13.5A23.49,23.49,0,0,1,410,272.8a20.57,20.57,0,0,1,7.8,6.25v-26.3H432Zm61.4-23.5h-40.5a13.75,13.75,0,0,0,4.2,9.4,12.94,12.94,0,0,0,9.1,3.4q7.8,0,11.1-6.7h15.1a25.25,25.25,0,0,1-9.2,13.15q-6.8,5.14-16.7,5.15a28.86,28.86,0,0,1-14.35-3.55,25.07,25.07,0,0,1-9.9-10.05,30.74,30.74,0,0,1-3.55-15,31.41,31.41,0,0,1,3.5-15.1,24.4,24.4,0,0,1,9.8-10,31.47,31.47,0,0,1,28.65-.1,23.91,23.91,0,0,1,9.7,9.65,29.21,29.21,0,0,1,3.45,14.35A32.67,32.67,0,0,1,493.42,303.25Z" transform="translate(-19.84 -19.84)"/><path class="cls-2" d="M332.42,278.65q0,4.91-2.8,7.65t-8.5,2.75h-11.7v-20.5h11.7q5.7,0,8.5,2.65A9.76,9.76,0,0,1,332.42,278.65Z" transform="translate(-19.84 -19.84)"/><path class="cls-2" d="M417.92,299.05a18,18,0,0,1-2,8.75,14.08,14.08,0,0,1-5.4,5.6,14.44,14.44,0,0,1-7.3,2,13.75,13.75,0,0,1-7.15-2,14.78,14.78,0,0,1-5.4-5.75,17.93,17.93,0,0,1-2.05-8.75,17.35,17.35,0,0,1,2.05-8.65,14.38,14.38,0,0,1,5.35-5.55,14.15,14.15,0,0,1,7.2-1.9,14.44,14.44,0,0,1,7.3,1.95,14.08,14.08,0,0,1,5.4,5.6A18,18,0,0,1,417.92,299.05Z" transform="translate(-19.84 -19.84)"/><path class="cls-2" d="M479.32,293.85H453a13.83,13.83,0,0,1,4.35-8.75,12.71,12.71,0,0,1,8.75-3.15,13.81,13.81,0,0,1,9.3,3.25A11.13,11.13,0,0,1,479.32,293.85Z" transform="translate(-19.84 -19.84)"/></g></g></svg>